PathFileType	4	(X/Y/Z)	RBDS013static.trc
DataRate	CameraRate	NumFrames	NumMarkers	Units	OrigDataRate	OrigDataStartFrame	OrigNumFrames
150.000000	150.000000	4	48	mm	150.000000	75	150
Frame#	Time	L.Ankle			L.Ankle.Medial			L.ASIS			L.GTR			L.Heel.Bottom			L.Heel.Lateral			L.Heel.Top			L.HF			L.Iliac.Crest			L.Knee			L.Knee.Medial			L.MT1			L.MT2			L.MT5			L.PSIS			L.Shank.Bottom.Lateral			L.Shank.Bottom.Medial			L.Shank.Top.Lateral			L.Shank.Top.Medial			L.Thigh.Bottom.Lateral			L.Thigh.Bottom.Medial			L.Thigh.Top.Lateral			L.Thigh.Top.Medial			L.TT			R.Ankle			R.Ankle.Medial			R.ASIS			R.GTR			R.Heel.Bottom			R.Heel.Lateral			R.Heel.Top			R.HF			R.Iliac.Crest			R.Knee			R.Knee.Medial			R.MT1			R.MT2			R.MT5			R.PSIS			R.Shank.Bottom.Lateral			R.Shank.Bottom.Medial			R.Shank.Top.Lateral			R.Shank.Top.Medial			R.Thigh.Bottom.Lateral			R.Thigh.Bottom.Medial			R.Thigh.Top.Lateral			R.Thigh.Top.Medial			R.TT			
		X1	Y1	Z1	X2	Y2	Z2	X3	Y3	Z3	X4	Y4	Z4	X5	Y5	Z5	X6	Y6	Z6	X7	Y7	Z7	X8	Y8	Z8	X9	Y9	Z9	X10	Y10	Z10	X11	Y11	Z11	X12	Y12	Z12	X13	Y13	Z13	X14	Y14	Z14	X15	Y15	Z15	X16	Y16	Z16	X17	Y17	Z17	X18	Y18	Z18	X19	Y19	Z19	X20	Y20	Z20	X21	Y21	Z21	X22	Y22	Z22	X23	Y23	Z23	X24	Y24	Z24	X25	Y25	Z25	X26	Y26	Z26	X27	Y27	Z27	X28	Y28	Z28	X29	Y29	Z29	X30	Y30	Z30	X31	Y31	Z31	X32	Y32	Z32	X33	Y33	Z33	X34	Y34	Z34	X35	Y35	Z35	X36	Y36	Z36	X37	Y37	Z37	X38	Y38	Z38	X39	Y39	Z39	X40	Y40	Z40	X41	Y41	Z41	X42	Y42	Z42	X43	Y43	Z43	X44	Y44	Z44	X45	Y45	Z45	X46	Y46	Z46	X47	Y47	Z47	X48	Y48	Z48	

76	0.5	705.7359008789063	102.6656112670898	1048.5478515625	723.4937744140625	115.4455337524414	1129.86181640625	813.9619750976563	938.4151000976563	1112.290161132813	735.37353515625	849.6092529296875	1064.88671875	632.9340209960938	40.04656600952148	1092.473999023438	656.3877563476563	64.16496276855469	1051.196166992188	641.634033203125	87.32255554199219	1091.951538085938	742.3084716796875	437.4077758789063	1058.1611328125	756.724609375	1002.107116699219	1082.218627929688	745.2376098632813	493.703125	1062.210571289063	736.6145629882813	479.5457458496094	1183.434814453125	842.2098999023438	60.08538436889648	1128.578002929688	853.8602905273438	71.83557891845703	1086.109985351563	814.5665283203125	44.34601974487305	1020.464233398438	652.7552490234375	973.5638427734375	1184.941162109375	701.840576171875	176.6648406982422	1044.5693359375	660.949951171875	176.4066772460938	1081.840576171875	694.5442504882813	256.9826049804688	1038.797119140625	655.9036865234375	257.3287048339844	1076.315307617188	763.9944458007813	592.7838134765625	1045.41162109375	698.1735229492188	590.0059204101563	1077.513793945313	752.8925170898438	702.4288330078125	1039.800903320313	691.67822265625	700.26171875	1070.998291015625	784.677001953125	414.7278747558594	1099.798095703125	712.1022338867188	101.9760589599609	1413.523803710938	732.5166625976563	115.0312423706055	1333.390625	822.6571044921875	940.8455810546875	1348.622192382813	754.9182739257813	851.4441528320313	1401.488159179688	638.345947265625	40.54158782958984	1370.64306640625	662.5205688476563	61.14791107177734	1410.379150390625	646.9601440429688	91.50815582275391	1369.859008789063	747.1023559570313	436.7121887207031	1406.658203125	772.00927734375	1003.725341796875	1380.124877929688	743.0941162109375	501.3412475585938	1401.415649414063	743.0816040039063	479.449951171875	1281.625366210938	845.3005981445313	59.01618194580078	1331.33544921875	852.3419799804688	77.73118591308594	1365.154174804688	819.1092529296875	52.15962600708008	1441.643798828125	653.893798828125	974.6010131835938	1285.532958984375	700.3579711914063	172.7484130859375	1416.910522460938	664.663818359375	174.5862121582031	1380.04443359375	696.2469482421875	257.3739318847656	1423.215576171875	658.7728271484375	255.1280212402344	1384.58544921875	748.9553833007813	628.5685424804688	1418.7392578125	691.8714599609375	621.0014038085938	1372.637084960938	733.7828979492188	737.1760864257813	1414.875854492188	680.5513916015625	730.9008178710938	1370.46533203125	787.782470703125	413.0760192871094	1367.3623046875	
77	0.5066666666666667	705.7286987304688	102.6628875732422	1048.5498046875	723.492431640625	115.4442672729492	1129.862548828125	813.9382934570313	938.4129638671875	1112.289672851563	735.3756103515625	849.6137084960938	1064.897705078125	632.926513671875	40.05435180664063	1092.480590820313	656.3824462890625	64.17092895507813	1051.194580078125	641.6304931640625	87.32564544677734	1091.943115234375	742.2841186523438	437.4304809570313	1058.152954101563	756.7144165039063	1002.1025390625	1082.218139648438	745.2211303710938	493.702880859375	1062.205444335938	736.6153564453125	479.5423278808594	1183.428588867188	842.2178344726563	60.07036590576172	1128.571899414063	853.856689453125	71.84075164794922	1086.119140625	814.5651245117188	44.3546257019043	1020.468322753906	652.7548828125	973.5750122070313	1184.953857421875	701.8272705078125	176.6682434082031	1044.56787109375	660.9501953125	176.4062194824219	1081.842407226563	694.5408325195313	256.9841918945313	1038.800415039063	655.904541015625	257.3223266601563	1076.34033203125	763.9736328125	592.7782592773438	1045.416259765625	698.1639404296875	590.010009765625	1077.521728515625	752.8826293945313	702.4225463867188	1039.801025390625	691.6622924804688	700.2643432617188	1070.993041992188	784.6692504882813	414.7273559570313	1099.80517578125	712.0977172851563	101.9814376831055	1413.526977539063	732.6102294921875	115.0906829833984	1333.225463867188	822.6539306640625	940.8399047851563	1348.622802734375	754.9151000976563	851.4407348632813	1401.498657226563	638.3439331054688	40.53496551513672	1370.63671875	662.5277099609375	61.14741897583008	1410.381469726563	646.958740234375	91.51544952392578	1369.866943359375	747.11083984375	436.7339477539063	1406.624877929688	772.0167846679688	1003.715087890625	1380.12060546875	743.0938110351563	501.3374328613281	1401.420532226563	743.0589599609375	479.4587097167969	1281.62158203125	845.3021240234375	59.01618194580078	1331.342529296875	852.334228515625	77.73018646240234	1365.149047851563	819.10400390625	52.16083526611328	1441.649536132813	653.8936767578125	974.6115112304688	1285.53173828125	700.3648681640625	172.7387847900391	1416.907592773438	664.6669921875	174.5785064697266	1380.04150390625	696.2509155273438	257.3726806640625	1423.21484375	658.7799072265625	255.1227416992188	1384.586791992188	748.9539184570313	628.5758056640625	1418.747314453125	691.866943359375	620.9981079101563	1372.652587890625	733.78955078125	737.1695556640625	1414.881225585938	680.5541381835938	730.9000854492188	1370.467407226563	787.7902221679688	413.086181640625	1367.354736328125	
78	0.5133333333333334	705.7321166992188	102.6622848510742	1048.56298828125	723.4885864257813	115.4535446166992	1129.85888671875	813.9385375976563	938.4119873046875	1112.28662109375	735.3598022460938	849.6050415039063	1064.880493164063	632.931640625	40.04181289672852	1092.486206054688	656.3674926757813	64.17418670654297	1051.192993164063	641.6394653320313	87.32354736328125	1091.9501953125	742.2836303710938	437.4020690917969	1058.165161132813	756.704833984375	1002.107482910156	1082.216186523438	745.2186889648438	493.7139587402344	1062.208740234375	736.6050415039063	479.5385131835938	1183.43310546875	842.2128295898438	60.07709884643555	1128.579467773438	853.85693359375	71.84455871582031	1086.115844726563	814.5657958984375	44.35141372680664	1020.468200683594	652.7564086914063	973.5830078125	1184.956787109375	701.8320922851563	176.67333984375	1044.572265625	660.9461669921875	176.4111480712891	1081.847900390625	694.5327758789063	256.9957275390625	1038.80126953125	655.8965454101563	257.3218383789063	1076.3349609375	763.96240234375	592.7733154296875	1045.420043945313	698.1511840820313	590.004638671875	1077.527954101563	752.8553466796875	702.4215087890625	1039.796020507813	691.662353515625	700.2487182617188	1070.999633789063	784.6551513671875	414.7326354980469	1099.806274414063	712.0946044921875	101.9797439575195	1413.520263671875	732.4994506835938	115.0442047119141	1333.388061523438	822.6563110351563	940.8313598632813	1348.615844726563	754.9232788085938	851.4401245117188	1401.49072265625	638.3486328125	40.53733825683594	1370.642211914063	662.5299072265625	61.14870071411133	1410.387573242188	646.9650268554688	91.51158142089844	1369.869262695313	747.1134643554688	436.7306823730469	1406.64306640625	772.0271606445313	1003.712219238281	1380.1279296875	743.1029052734375	501.3360290527344	1401.423583984375	743.0660400390625	479.4542846679688	1281.609008789063	845.301513671875	59.01349258422852	1331.336669921875	852.3364868164063	77.73256683349609	1365.14599609375	819.107177734375	52.15897369384766	1441.657958984375	653.8973999023438	974.616943359375	1285.54248046875	700.361083984375	172.7678375244141	1416.918579101563	664.6644897460938	174.5903472900391	1380.047119140625	696.2512817382813	257.3748779296875	1423.215942382813	658.778564453125	255.1330261230469	1384.582885742188	748.9564208984375	628.5661010742188	1418.741333007813	691.8734130859375	620.9869995117188	1372.633056640625	733.7855834960938	737.1737060546875	1414.884765625	680.5567016601563	730.9025268554688	1370.467529296875	787.794189453125	413.0844421386719	1367.358520507813	
79	0.52	705.7009887695313	102.6704788208008	1048.553955078125	723.4921875	115.4551773071289	1129.863159179688	813.9247436523438	938.4131469726563	1112.276000976563	735.3629150390625	849.6130981445313	1064.873413085938	632.9298706054688	40.05642700195313	1092.469360351563	656.3741455078125	64.17363739013672	1051.186645507813	641.6293334960938	87.32113647460938	1091.963989257813	742.288330078125	437.4050598144531	1058.164794921875	756.7054443359375	1002.105529785156	1082.2216796875	745.2118530273438	493.6966857910156	1062.217529296875	736.6045532226563	479.5470275878906	1183.4345703125	842.22021484375	60.08544158935547	1128.573364257813	853.86279296875	71.84685516357422	1086.114501953125	814.5616455078125	44.35136032104492	1020.463317871094	652.7581176757813	973.5838623046875	1184.947143554688	701.8211059570313	176.6742553710938	1044.563110351563	660.9459228515625	176.4081726074219	1081.839721679688	694.5328979492188	256.9898681640625	1038.796508789063	655.8966674804688	257.3235473632813	1076.35009765625	763.9432373046875	592.7683715820313	1045.41748046875	698.1487426757813	590.0028686523438	1077.532104492188	752.851806640625	702.420166015625	1039.799072265625	691.649169921875	700.2493896484375	1071	784.6448974609375	414.7204284667969	1099.789184570313	712.0948486328125	101.978157043457	1413.525756835938	732.5120849609375	115.0501022338867	1333.385375976563	822.6604614257813	940.83251953125	1348.616333007813	754.92138671875	851.445556640625	1401.49072265625	638.3405151367188	40.53999710083008	1370.6396484375	662.5310668945313	61.14811325073242	1410.384887695313	646.9546508789063	91.515625	1369.858276367188	747.1098022460938	436.7277526855469	1406.642456054688	772.0347900390625	1003.693908691406	1380.134643554688	743.0982055664063	501.3419799804688	1401.422485351563	743.05078125	479.4606628417969	1281.611206054688	845.2865600585938	59.01679611206055	1331.314086914063	852.3270874023438	77.73714447021484	1365.142944335938	819.1083984375	52.16000366210938	1441.639038085938	653.89990234375	974.6187744140625	1285.549438476563	700.3648681640625	172.7594451904297	1416.919189453125	664.66552734375	174.5906066894531	1380.046264648438	696.2525634765625	257.3771057128906	1423.2119140625	658.7814331054688	255.1268463134766	1384.592529296875	748.9674682617188	628.5667724609375	1418.749633789063	691.8856201171875	620.9934692382813	1372.662353515625	733.7904052734375	737.1642456054688	1414.87646484375	680.5525512695313	730.8958740234375	1370.4765625	787.7937622070313	413.0792236328125	1367.371215820313	
